#!OML:ASF F:\VICON\USERDATA\INSTALL\rory3\rory3.ASF
:FULLY-SPECIFIED
:DEGREES
445
root 2.27723 16.5495 15.1905 25.2247 1.75906 0.873766
lowerback -19.4917 0.56008 -0.535527
upperback -6.57259 0.839363 0.141024
thorax 3.80523 0.424941 0.640981
lowerneck -12.3956 -0.795667 -0.361258
upperneck 37.5139 -1.21552 0.421426
head 15.1712 -0.487348 0.0515728
rclavicle 6.00081e-015 8.15017e-015
rhumerus -52.1507 37.5177 -102.504
rradius 37.722
rwrist -19.422
rhand 25.0204 4.4094
rfingers 7.12502
rthumb 49.1799 -17.2335
lclavicle 6.00081e-015 8.15017e-015
lhumerus -61.3661 -29.7647 103.299
lradius 42.2041
lwrist 14.156
lhand 30.7006 20.4694
lfingers 7.12502
lthumb 54.3357 39.0778
rfemur -44.5779 2.16577 32.0794
rtibia 42.3239
rfoot -45.1694 -29.8283
rtoes 37.6908
lfemur -26.3655 21.3202 -30.335
ltibia 53.1293
lfoot -32.2508 42.0828
ltoes 50.9562
446
root 2.28628 16.5563 15.2114 25.1207 1.82046 0.862864
lowerback -19.5019 0.558995 -0.312086
upperback -6.39612 0.797888 0.101912
thorax 4.00381 0.401441 0.46486
lowerneck -12.4469 -0.756125 -0.200508
upperneck 37.3218 -1.13506 0.243839
head 15.086 -0.456018 -0.0390572
rclavicle -6.67171e-015 -1.09332e-014
rhumerus -51.9023 37.7419 -102.502
rradius 37.8905
rwrist -19.4069
rhand 25.0829 4.37474
rfingers 7.12502
rthumb 49.2372 -17.2395
lclavicle -6.67171e-015 -1.09332e-014
lhumerus -60.9053 -29.9837 103.06
lradius 42.198
lwrist 14.1246
lhand 31.0337 20.8388
lfingers 7.12502
lthumb 54.6338 39.2391
rfemur -44.4702 1.62911 32.2653
rtibia 42.354
rfoot -44.3334 -30.3589
rtoes 36.4492
lfemur -26.3442 21.1358 -30.2986
ltibia 53.1038
lfoot -28.8908 44.8521
ltoes 49.7154
447
root 2.29048 16.5587 15.2189 25.0769 1.99835 0.893381
lowerback -19.3265 0.532689 -0.188536
upperback -6.38911 0.740276 0.103111
thorax 3.92246 0.3728 0.381144
lowerneck -12.3416 -0.756224 -0.244588
upperneck 37.2079 -1.10662 0.206664
head 15.0056 -0.455761 -0.0414466
rclavicle -3.60297e-015 1.11319e-014
rhumerus -51.8349 37.7285 -102.401
rradius 38.0984
rwrist -19.4875
rhand 25.3368 4.19355
rfingers 7.12502
rthumb 49.4702 -17.303
lclavicle -3.60297e-015 1.11319e-014
lhumerus -60.857 -30.3287 103.293
lradius 42.2292
lwrist 14.3138
lhand 30.4579 20.8158
lfingers 7.12502
lthumb 54.1182 39.5736
rfemur -44.5016 1.4711 32.2823
rtibia 42.3693
rfoot -43.7525 -31.2557
rtoes 35.2404
lfemur -26.3979 20.9036 -30.2474
ltibia 53.1268
lfoot -26.534 46.297
ltoes 49.0024
448
root 2.29052 16.5579 15.2177 25.1747 2.19934 0.853259
lowerback -19.2189 0.475325 -0.110414
upperback -6.41283 0.645702 0.201571
thorax 3.84156 0.326794 0.419099
lowerneck -12.435 -0.748389 -0.300863
upperneck 37.1461 -1.04837 0.128083
head 14.9971 -0.449525 -0.0552832
rclavicle 1.40516e-014 -7.7526e-015
rhumerus -51.7723 37.7726 -102.184
rradius 38.3636
rwrist -19.6348
rhand 25.6618 3.9225
rfingers 7.12502
rthumb 49.7681 -17.4212
lclavicle 1.40516e-014 -7.7526e-015
lhumerus -60.8771 -30.5914 103.635
lradius 42.2866
lwrist 14.5028
lhand 29.0755 19.9241
lfingers 7.12502
lthumb 52.8739 39.496
rfemur -44.6272 1.41099 32.384
rtibia 42.3746
rfoot -43.8479 -31.3555
rtoes 35.2952
lfemur -26.5807 20.5655 -30.1368
ltibia 53.201
lfoot -29.1853 45.1808
ltoes 49.5771
449
root 2.29029 16.5553 15.2188 25.2368 2.17904 0.904134
lowerback -19.1031 0.447949 -0.144462
upperback -6.42748 0.614693 0.226625
thorax 3.76531 0.31199 0.456954
lowerneck -12.4668 -0.733884 -0.229354
upperneck 37.1087 -0.999613 -0.00102703
head 14.9848 -0.436671 -0.114363
rclavicle 6.43565e-015 -9.93923e-016
rhumerus -51.9064 38.01 -102.291
rradius 38.6566
rwrist -19.8824
rhand 25.7611 3.69122
rfingers 7.12502
rthumb 49.859 -17.6053
lclavicle 6.43565e-015 -9.93923e-016
lhumerus -60.8965 -30.6458 103.76
lradius 42.3359
lwrist 14.4259
lhand 28.5349 19.4124
lfingers 7.12502
lthumb 52.385 39.2866
rfemur -44.693 1.45258 32.3253
rtibia 42.4134
rfoot -43.837 -31.4083
rtoes 35.3852
lfemur -26.7382 20.4076 -30.2125
ltibia 53.249
lfoot -29.8878 45.0328
ltoes 49.6594
450
root 2.28807 16.5549 15.2294 25.2635 1.95036 1.08452
lowerback -18.9291 0.442115 -0.364919
upperback -6.55366 0.650158 0.159792
thorax 3.53818 0.331254 0.516312
lowerneck -12.2336 -0.733881 -0.223279
upperneck 37.0867 -1.01363 0.0280657
head 14.9197 -0.438712 -0.104379
rclavicle 2.24627e-014 5.96354e-016
rhumerus -52.1888 38.0111 -102.539
rradius 38.831
rwrist -19.9754
rhand 26.0293 3.5217
rfingers 7.12502
rthumb 50.1044 -17.646
lclavicle 2.24627e-014 5.96354e-016
lhumerus -61.2085 -30.6762 103.919
lradius 42.4487
lwrist 14.1598
lhand 28.8775 19.695
lfingers 7.12502
lthumb 52.695 39.3786
rfemur -44.6668 1.62104 32.055
rtibia 42.4715
rfoot -44.1114 -31.129
rtoes 35.779
lfemur -26.8138 20.3916 -30.4829
ltibia 53.2278
lfoot -28.4017 46.1579
ltoes 49.0884
451
root 2.28335 16.5519 15.2364 25.3061 1.70012 1.20299
lowerback -18.7962 0.464015 -0.536442
upperback -6.63224 0.711873 0.0960187
thorax 3.38328 0.363257 0.557273
lowerneck -12.1685 -0.723135 -0.260068
upperneck 37.1179 -1.01354 0.0969835
head 14.9203 -0.434788 -0.0688736
rclavicle 2.5842e-015 8.94531e-015
rhumerus -52.4353 38.2205 -102.914
rradius 38.9697
rwrist -20.3194
rhand 25.9685 3.51093
rfingers 7.12502
rthumb 50.0489 -17.6861
lclavicle 2.5842e-015 8.94531e-015
lhumerus -61.4972 -30.9287 104.245
lradius 42.4675
lwrist 14.1085
lhand 28.6558 19.7384
lfingers 7.12502
lthumb 52.4945 39.5457
rfemur -44.6976 2.05035 31.7697
rtibia 42.5263
rfoot -44.4815 -31.0688
rtoes 35.9663
lfemur -26.8301 20.3413 -30.6612
ltibia 53.1683
lfoot -28.9611 46.0107
ltoes 48.9957
452
root 2.28035 16.5473 15.2474 25.2564 1.5516 1.24056
lowerback -18.6127 0.479581 -0.602377
upperback -6.64704 0.743315 0.082058
thorax 3.27103 0.379695 0.584337
lowerneck -12.4016 -0.712725 -0.282789
upperneck 37.3484 -0.987674 0.0835289
head 15.0871 -0.427841 -0.0680336
rclavicle 7.10655e-015 -6.95746e-015
rhumerus -52.7047 38.4921 -103.28
rradius 39.1348
rwrist -20.6833
rhand 25.5863 3.73171
rfingers 7.12502
rthumb 49.6989 -17.6477
lclavicle 7.10655e-015 -6.95746e-015
lhumerus -61.6422 -31.1632 104.544
lradius 42.3725
lwrist 14.1924
lhand 28.2262 19.3745
lfingers 7.12502
lthumb 52.1053 39.4174
rfemur -44.6033 2.45602 31.5726
rtibia 42.546
rfoot -44.8868 -31.0286
rtoes 36.239
lfemur -26.6289 20.2245 -30.6408
ltibia 53.0871
lfoot -30.6669 44.8688
ltoes 49.3744
453
root 2.28062 16.5509 15.2686 25.1275 1.51063 1.25159
lowerback -18.2694 0.474714 -0.592186
upperback -6.79029 0.731785 0.104766
thorax 2.93987 0.376063 0.595187
lowerneck -12.2017 -0.70227 -0.374882
upperneck 37.4358 -0.959922 0.119775
head 15.0835 -0.424289 -0.0311742
rclavicle 8.28684e-015 4.37326e-015
rhumerus -53.3961 38.6646 -103.815
rradius 39.3928
rwrist -20.9042
rhand 25.1633 3.94013
rfingers 7.12502
rthumb 49.311 -17.637
lclavicle 8.28684e-015 4.37326e-015
lhumerus -61.9629 -31.1247 104.774
lradius 42.3829
lwrist 13.9255
lhand 28.2564 19.3371
lfingers 7.12502
lthumb 52.1327 39.3635
rfemur -44.343 2.47511 31.5286
rtibia 42.5319
rfoot -44.9268 -30.9746
rtoes 36.2155
lfemur -26.404 20.1525 -30.5312
ltibia 53.0007
lfoot -27.7295 46.4788
ltoes 48.6972
